#!OML:ASF F:\VICON\USERDATA\INSTALL\Justin_Nancy\Justin_Nancy.ASF
:FULLY-SPECIFIED
:DEGREES
62
root 0.909619 17.8268 -15.4459 6.67529 -3.52518 0.757058
lowerback 4.17186 -0.547756 -2.39589
upperback -0.686321 -0.777398 2.69581
thorax -2.97987 -0.323509 4.18624
lowerneck -16.4145 -3.8144 -9.95048
upperneck 21.818 -3.95848 5.34832
head 9.96622 -2.05521 3.00747
rclavicle 6.65929e-015 6.36111e-015
rhumerus -34.1116 -11.3434 -78.3177
rradius 34.7873
rwrist 3.90535
rhand -9.49697 13.2582
rfingers 7.12502
rthumb 16.468 -16.0629
lclavicle 6.65929e-015 6.36111e-015
lhumerus -31.7827 10.8564 84.307
lradius 30.7023
lwrist -8.76264
lhand -13.0207 23.6646
lfingers 7.12502
lthumb 13.0733 53.2349
rfemur -12.2142 6.09652 19.2311
rtibia 22.285
rfoot -11.5316 -10.4072
rtoes 4.88791
lfemur -10.3715 -3.49522 -19.7997
ltibia 19.0497
lfoot -11.9179 6.84812
ltoes -1.08266
63
root 0.908823 17.83 -15.4506 6.72543 -3.52287 0.80004
lowerback 4.15747 -0.532033 -2.44262
upperback -0.69567 -0.759208 2.67415
thorax -2.9828 -0.313597 4.18888
lowerneck -16.3759 -3.81431 -9.91977
upperneck 21.7648 -3.96635 5.33716
head 9.93967 -2.0573 2.99687
rclavicle 6.36111e-015 0
rhumerus -34.026 -11.3336 -78.3846
rradius 34.8108
rwrist 3.87446
rhand -9.45391 12.6565
rfingers 7.12502
rthumb 16.5095 -16.6612
lclavicle 6.36111e-015 0
lhumerus -31.7792 10.6779 84.4034
lradius 30.5971
lwrist -7.864
lhand -12.3525 25.3811
lfingers 7.12502
lthumb 13.7173 54.909
rfemur -12.3219 6.11031 19.1723
rtibia 22.3492
rfoot -11.5823 -10.4433
rtoes 4.82356
lfemur -10.4552 -3.43021 -19.844
ltibia 19.0268
lfoot -11.8239 6.78007
ltoes -1.32677
64
root 0.910002 17.8283 -15.4553 6.74201 -3.5737 0.844717
lowerback 4.16697 -0.504203 -2.46018
upperback -0.679144 -0.724006 2.64679
thorax -2.97436 -0.296363 4.16797
lowerneck -16.4242 -3.81173 -9.95798
upperneck 21.7834 -3.96065 5.38993
head 9.95675 -2.05138 3.02276
rclavicle 5.96354e-016 -7.95139e-015
rhumerus -33.9252 -11.2519 -78.473
rradius 34.8352
rwrist 3.82317
rhand -9.48818 12.5311
rfingers 7.12502
rthumb 16.4765 -16.7892
lclavicle 5.96354e-016 -7.95139e-015
lhumerus -31.7244 10.1617 84.7043
lradius 30.095
lwrist -5.07444
lhand -14.6327 24.1653
lfingers 7.12502
lthumb 11.519 53.8288
rfemur -12.4044 6.08653 19.1037
rtibia 22.3991
rfoot -11.5203 -10.3507
rtoes 4.87247
lfemur -10.41 -3.4338 -19.8963
ltibia 19.0123
lfoot -11.8844 6.74434
ltoes -0.9857
65
root 0.909879 17.8234 -15.4602 6.66554 -3.64187 0.884067
lowerback 4.26597 -0.451197 -2.49919
upperback -0.642812 -0.657076 2.64143
thorax -2.99826 -0.2624 4.18134
lowerneck -16.4342 -3.8219 -10.0119
upperneck 21.7914 -3.9613 5.39904
head 9.96318 -2.05501 3.03493
rclavicle -7.25564e-015 8.74653e-015
rhumerus -33.8926 -11.1481 -78.4905
rradius 34.9046
rwrist 3.74183
rhand -9.57951 12.4715
rfingers 7.12502
rthumb 16.3885 -16.8561
lclavicle -7.25564e-015 8.74653e-015
lhumerus -31.7273 10.6764 84.3639
lradius 30.5192
lwrist -8.0293
lhand -9.98411 27.3635
lfingers 7.12502
lthumb 15.999 56.7229
rfemur -12.3575 6.16177 19.0525
rtibia 22.4106
rfoot -11.4776 -10.2953
rtoes 5.14864
lfemur -10.3156 -3.37476 -19.9441
ltibia 19.0383
lfoot -11.9966 6.69827
ltoes -0.746195
66
root 0.910713 17.8237 -15.4626 6.61685 -3.65583 0.847222
lowerback 4.24986 -0.423761 -2.44593
upperback -0.556348 -0.617717 2.65466
thorax -2.90372 -0.246726 4.16099
lowerneck -16.4971 -3.84584 -10.0054
upperneck 21.7733 -3.97695 5.35092
head 9.96904 -2.06586 3.01367
rclavicle -5.26779e-015 -2.78299e-014
rhumerus -33.7278 -11.1701 -78.5061
rradius 34.857
rwrist 3.84461
rhand -9.59659 12.4242
rfingers 7.12502
rthumb 16.3721 -16.9048
lclavicle -5.26779e-015 -2.78299e-014
lhumerus -31.6603 10.1905 84.664
lradius 30.3535
lwrist -6.01132
lhand -12.9923 24.8487
lfingers 7.12502
lthumb 13.1006 54.4173
rfemur -12.3235 6.14098 19.0976
rtibia 22.4169
rfoot -11.4512 -10.2778
rtoes 5.20265
lfemur -10.3406 -3.2443 -19.9225
ltibia 19.058
lfoot -11.9628 6.65433
ltoes -1.19116
67
root 0.911096 17.8273 -15.4631 6.65728 -3.59328 0.813202
lowerback 4.20254 -0.420785 -2.41261
upperback -0.545381 -0.610644 2.6842
thorax -2.86641 -0.244397 4.17157
lowerneck -16.5369 -3.85404 -10.0737
upperneck 21.7839 -3.97581 5.39253
head 9.9828 -2.06578 3.03988
rclavicle -9.54166e-015 -2.54444e-014
rhumerus -33.5776 -11.0806 -78.5355
rradius 34.7687
rwrist 3.85817
rhand -9.58115 12.3473
rfingers 7.12502
rthumb 16.387 -16.9804
lclavicle -9.54166e-015 -2.54444e-014
lhumerus -31.6251 10.2691 84.6947
lradius 30.275
lwrist -5.91034
lhand -13.5234 23.7194
lfingers 7.12502
lthumb 12.5886 53.3201
rfemur -12.3738 6.11268 19.1354
rtibia 22.4311
rfoot -11.4214 -10.3329
rtoes 5.29967
lfemur -10.4175 -3.23745 -19.8871
ltibia 19.0441
lfoot -11.9276 6.62978
ltoes -1.20876
68
root 0.90981 17.8296 -15.4654 6.67511 -3.56642 0.879675
lowerback 4.23599 -0.408792 -2.5121
upperback -0.572887 -0.59977 2.69377
thorax -2.9137 -0.235904 4.2382
lowerneck -16.622 -3.86983 -10.1119
upperneck 21.8759 -3.98119 5.3938
head 10.0333 -2.07138 3.04653
rclavicle 1.47101e-014 3.97569e-015
rhumerus -33.5412 -10.9152 -78.5629
rradius 34.7997
rwrist 3.74655
rhand -9.75499 12.4199
rfingers 7.12502
rthumb 16.2196 -16.9216
lclavicle 1.47101e-014 3.97569e-015
lhumerus -31.674 10.2139 84.7741
lradius 30.1889
lwrist -5.47706
lhand -13.9569 23.402
lfingers 7.12502
lthumb 12.1707 53.0279
rfemur -12.3806 6.12217 19.0649
rtibia 22.4137
rfoot -11.4087 -10.3629
rtoes 5.3551
lfemur -10.4487 -3.2642 -19.9489
ltibia 19.0485
lfoot -11.9579 6.64007
ltoes -0.839362
69
root 0.909695 17.8291 -15.4692 6.6666 -3.60078 0.932443
lowerback 4.26832 -0.368082 -2.55571
upperback -0.578667 -0.548531 2.67894
thorax -2.94237 -0.209045 4.2447
lowerneck -16.6693 -3.9091 -10.1234
upperneck 21.9366 -4.02086 5.35885
head 10.0673 -2.09477 3.03074
rclavicle -5.86415e-015 4.37326e-014
rhumerus -33.5463 -10.8766 -78.5596
rradius 34.8459
rwrist 3.69645
rhand -9.94695 12.8135
rfingers 7.12502
rthumb 16.0347 -16.543
lclavicle -5.86415e-015 4.37326e-014
lhumerus -31.7367 10.1486 84.8039
lradius 30.2783
lwrist -5.50038
lhand -13.6427 24.0786
lfingers 7.12502
lthumb 12.4736 53.6863
rfemur -12.394 6.07634 19.0038
rtibia 22.4199
rfoot -11.4035 -10.3093
rtoes 4.88548
lfemur -10.4603 -3.34345 -20.0072
ltibia 19.0428
lfoot -11.8821 6.73975
ltoes -0.40433
